<svg width="104" height="15" viewBox="0 0 104 15" fill="none" xmlns="http://www.w3.org/2000/svg">
<path d="M22.4965 14.4162V0.0794678H24.7792V12.2923H30.556V14.4162H22.4965Z" fill="white"/>
<path d="M34.691 2.18608H32.4083V0.0794678H34.691V2.18608Z" fill="white"/>
<path d="M34.6507 14.4162H32.4474V3.69788H34.6507V14.4162Z" fill="white"/>
<path fill-rule="evenodd" clip-rule="evenodd" d="M42.7688 14.6751C46.0237 14.6751 48.3466 12.2728 48.3466 9.05703C48.3466 5.82175 46.0237 3.44016 42.7688 3.44016C41.4797 3.42145 40.2264 3.86465 39.2355 4.68963V0.0794678H37.0323V14.4162H38.6028L38.9778 13.2058C40.0053 14.1652 41.3632 14.6914 42.7688 14.6751ZM42.5905 5.54332C44.6154 5.54332 46.0835 7.0321 46.0835 9.05703C46.0835 11.0624 44.6154 12.5707 42.5905 12.5707C40.5656 12.5707 39.0768 11.0417 39.0768 9.05703C39.0768 7.05281 40.5656 5.54332 42.5905 5.54332Z" fill="white"/>
<path fill-rule="evenodd" clip-rule="evenodd" d="M60.5985 9.81179H51.904C52.1617 11.5376 53.4123 12.6099 55.1796 12.6099C56.4451 12.6099 57.5013 12.015 58.0559 11.0417H60.3788C59.5251 13.3048 57.56 14.6751 55.1784 14.6751C52.0421 14.6751 49.6559 12.2532 49.6559 9.05704C49.6559 5.84132 52.0386 3.44017 55.1784 3.44017C58.4528 3.44017 60.6365 5.96097 60.6365 9.07775C60.6377 9.31936 60.6181 9.57363 60.5985 9.81179ZM51.9431 8.02502H58.4344C58.0375 6.39702 56.8064 5.42483 55.1796 5.42483C53.5113 5.42483 52.3205 6.41658 51.9431 8.02502Z" fill="white"/>
<path d="M64.8428 8.69923C64.8428 6.75829 65.7552 5.72281 67.5822 5.72281H68.7328V3.63806H67.7801C66.3316 3.63806 65.2789 4.13163 64.5046 5.16711L64.0306 3.69788H62.6396V14.4162H64.8428V8.69923Z" fill="white"/>
<path d="M75.82 12.412C74.5096 12.412 73.8147 11.6975 73.8147 10.4273V5.72281H76.9717V3.8371H73.7962V1.49577L69.5646 5.72741H71.6125V10.6103C71.6125 12.9723 73.0611 14.4208 75.4024 14.4208H77.0315V12.412H75.82Z" fill="white"/>
<path fill-rule="evenodd" clip-rule="evenodd" d="M80.49 9.81179H89.1845C89.1883 9.76019 89.1923 9.70784 89.1964 9.65503L89.1964 9.6547C89.211 9.46383 89.2261 9.26691 89.2306 9.07775C89.2306 5.96097 87.0469 3.44017 83.7713 3.44017C80.6304 3.44017 78.2488 5.84132 78.2488 9.05704C78.2488 12.2532 80.635 14.6751 83.7713 14.6751C86.1529 14.6751 88.118 13.3048 88.9717 11.0417H86.6419C86.0885 12.015 85.0312 12.6099 83.7656 12.6099C81.9995 12.6099 80.7489 11.5376 80.49 9.81179ZM87.0216 8.02502H80.5303C80.9077 6.41658 82.0985 5.42483 83.7656 5.42483C85.3936 5.42483 86.6235 6.39702 87.0216 8.02502Z" fill="white"/>
<path d="M91.649 14.4162H89.2329L93.0434 8.87871L89.5297 3.70134H91.9918L94.3734 7.314L96.8148 3.70134H99.2309L95.6574 8.76366L99.5082 14.4208H97.0254L94.3458 10.3318L91.649 14.4162Z" fill="white"/>
<path d="M99.5692 0.391261H100.269V0.0794678H98.4819V0.391261H99.2321V2.18608H99.5692V0.391261Z" fill="white"/>
<path d="M101.718 2.18608H101.794L102.535 0.619065L102.806 2.18608H103.134L102.778 0.0794678H102.477L101.752 1.62233L101.027 0.0794678H100.732L100.378 2.18608H100.707L100.976 0.619065L101.718 2.18608Z" fill="white"/>
<g clip-path="url(#clip0_1246_954)">
<path d="M15.3632 2.47632V4.00687L11.581 7.78963L5.09815 7.78905L0.866577 12.0203V10.4892L4.64962 6.70615L11.1325 6.70702L15.3632 2.47632Z" fill="#FF6633"/>
<path d="M12.3062 9.54024L5.82327 9.53995L0.866577 14.4966L15.3632 14.4966L15.3635 6.4829L12.3062 9.54024Z" fill="#FF6633"/>
<path d="M3.9245 4.95582L10.4074 4.95611L15.3635 0.00028965L15.3632 0H0.866577V8.01404L3.9245 4.95582Z" fill="#FF6633"/>
</g>
<defs>
<clipPath id="clip0_1246_954">
<rect width="14.4966" height="14.4966" fill="white" transform="translate(0.866577)"/>
</clipPath>
</defs>
</svg>
